<?xml version="1.0" encoding="UTF-8" standalone="no"?>
<!-- Created with Inkscape (http://www.inkscape.org/) -->

<svg
   width="99.282951mm"
   height="28.703693mm"
   viewBox="0 0 99.282951 28.703693"
   version="1.1"
   id="svg1"
   xmlns="http://www.w3.org/2000/svg"
   xmlns:svg="http://www.w3.org/2000/svg">
  <defs
     id="defs1" />
  <g
     id="layer1"
     transform="translate(-44.670047,-132.39464)">
    <g
       id="g7">
      <path
         d="M 63.968628,138.81544 H 51.579193 v 5.01003 H 63.06429 v 5.20899 H 51.579193 v 11.50318 h -6.909145 v -26.93119 h 19.29858 z"
         id="text1-1"
         style="font-weight:bold;font-size:37.0417px;font-family:Sans;-inkscape-font-specification:'Sans Bold';letter-spacing:-4;stroke-width:0.264583"
         aria-label="F" />
      <path
         d="m 68.325855,133.62875 -4.583657,12.74676 h 6.54808 l -4.583655,14.24637 11.786547,-17.99542 h -7.202892 l 5.238464,-8.99771 z"
         fill="#000000"
         id="path1-6"
         style="stroke-width:0.14014" />
      <path
         style="font-weight:bold;font-size:37.0417px;line-height:0;font-family:Sans;-inkscape-font-specification:'Sans, Normal';letter-spacing:-1.05833;stroke-width:0.264583"
         d="m 91.248668,155.23822 v -4.2323 q -1.320334,0.10852 -2.857709,0.30747 -1.537375,0.18087 -2.333193,0.43408 -0.976686,0.30748 -1.501202,0.90434 -0.506429,0.57878 -0.506429,1.53738 0,0.63304 0.10852,1.03094 0.108521,0.39791 0.542603,0.75965 0.415996,0.36173 0.994772,0.5426 0.578777,0.16278 1.808677,0.16278 0.976686,0 1.971458,-0.39791 1.012859,-0.39791 1.772503,-1.04903 z m 0,3.1471 q -0.524516,0.39791 -1.302247,0.9586 -0.777731,0.56069 -1.465028,0.88625 -0.958599,0.43408 -1.989545,0.63304 -1.030946,0.21704 -2.260846,0.21704 -2.893882,0 -4.847253,-1.79059 -1.953371,-1.79059 -1.953371,-4.57596 0,-2.22467 0.994772,-3.63544 0.994772,-1.41076 2.821536,-2.22467 1.808677,-0.8139 4.485518,-1.15755 2.676841,-0.34365 5.552637,-0.50643 v -0.10852 q 0,-1.68207 -1.374594,-2.31511 -1.374594,-0.65112 -4.051436,-0.65112 -1.609722,0 -3.436485,0.57878 -1.826764,0.56069 -2.622582,0.86816 h -0.596863 v -4.90151 q 1.030946,-0.2713 3.346052,-0.63304 2.333193,-0.37982 4.666386,-0.37982 5.552637,0 8.012438,1.71824 2.477887,1.70016 2.477887,5.35368 v 13.81829 h -6.456976 z m 29.038052,-4.28657 q 0,3.1471 -2.82154,5.08239 -2.82153,1.91719 -7.72305,1.91719 -2.71301,0 -4.9196,-0.50643 -2.20658,-0.50643 -3.545,-1.12138 v -5.35368 h 0.59686 q 0.48834,0.34365 1.12138,0.75965 0.65112,0.3979 1.82676,0.86816 1.01286,0.416 2.29702,0.72347 1.28416,0.28939 2.74919,0.28939 1.9172,0 2.83962,-0.416 0.92243,-0.43408 0.92243,-1.26607 0,-0.74156 -0.54261,-1.06712 -0.5426,-0.34365 -2.06189,-0.65112 -0.72347,-0.16278 -1.97146,-0.34365 -1.2299,-0.19896 -2.24275,-0.47026 -2.76728,-0.72347 -4.1057,-2.24276 -1.33842,-1.53737 -1.33842,-3.8163 0,-2.93006 2.76727,-4.86534 2.78537,-1.95338 7.59645,-1.95338 2.27893,0 4.35891,0.47026 2.09806,0.45217 3.2737,0.97669 v 5.13664 h -0.56069 q -1.44694,-0.99477 -3.30988,-1.60972 -1.84485,-0.63304 -3.74396,-0.63304 -1.57355,0 -2.65875,0.43408 -1.06712,0.43408 -1.06712,1.2299 0,0.72347 0.48834,1.10329 0.48834,0.37983 2.29702,0.75965 0.99477,0.19895 2.13424,0.39791 1.15755,0.18086 2.31511,0.47025 2.56832,0.66921 3.79822,2.11615 1.2299,1.42886 1.2299,3.58118 z m 23.66628,6.43889 h -6.54741 v -10.07433 q 0,-1.2299 -0.12661,-2.44171 -0.12661,-1.2299 -0.43408,-1.80868 -0.36174,-0.66921 -1.06712,-0.97668 -0.6873,-0.30748 -1.93528,-0.30748 -0.88626,0 -1.80868,0.28939 -0.90434,0.28939 -1.97146,0.92243 v 14.39706 h -6.51123 v -28.14301 h 6.51123 v 10.07433 q 1.73633,-1.3565 3.32797,-2.07997 1.60972,-0.72348 3.56309,-0.72348 3.29179,0 5.13664,1.9172 1.86294,1.9172 1.86294,5.73351 z"
         id="text2-8"
         aria-label="ash" />
    </g>
  </g>
</svg>
