<?xml version="1.0" encoding="UTF-8" standalone="no"?>
<!-- Created with Inkscape (http://www.inkscape.org/) -->

<svg
   width="115.04992mm"
   height="27.491896mm"
   viewBox="0 0 115.04992 27.491896"
   version="1.1"
   id="svg1"
   xmlns="http://www.w3.org/2000/svg"
   xmlns:svg="http://www.w3.org/2000/svg">
  <defs
     id="defs1" />
  <g
     id="layer1"
     transform="translate(-146.99275,-134.35284)">
    <path
       d="m 164.03048,161.28403 h -17.03773 v -26.9312 h 3.58118 v 23.74793 h 13.45655 z m 20.52848,-10.09242 q 0,4.93769 -2.53214,7.7954 -2.53215,2.85771 -6.78254,2.85771 -4.28656,0 -6.81871,-2.85771 -2.51406,-2.85771 -2.51406,-7.7954 0,-4.93769 2.51406,-7.7954 2.53215,-2.87579 6.81871,-2.87579 4.25039,0 6.78254,2.87579 2.53214,2.85771 2.53214,7.7954 z m -3.50883,0 q 0,-3.92483 -1.53737,-5.82394 -1.53738,-1.91719 -4.26848,-1.91719 -2.76728,0 -4.30465,1.91719 -1.51929,1.89911 -1.51929,5.82394 0,3.79822 1.53738,5.76968 1.53737,1.95337 4.28656,1.95337 2.71301,0 4.25039,-1.93528 1.55546,-1.95337 1.55546,-5.78777 z m 23.71175,8.82634 q -1.70015,0.81391 -3.23753,1.26608 -1.51929,0.45217 -3.23753,0.45217 -2.1885,0 -4.01526,-0.63304 -1.82676,-0.65112 -3.12901,-1.95337 -1.32034,-1.30225 -2.04381,-3.29179 -0.72347,-1.98955 -0.72347,-4.6483 0,-4.95578 2.71302,-7.77731 2.7311,-2.82154 7.19853,-2.82154 1.73633,0 3.40031,0.48835 1.68207,0.48834 3.07475,1.19372 v 3.78014 h -0.18086 q -1.55547,-1.21182 -3.21945,-1.86294 -1.64589,-0.65112 -3.21944,-0.65112 -2.89389,0 -4.57596,1.95337 -1.66398,1.93528 -1.66398,5.69733 0,3.65352 1.62781,5.62498 1.6459,1.95337 4.61213,1.95337 1.03094,0 2.09806,-0.2713 1.06712,-0.2713 1.9172,-0.70538 0.74156,-0.37982 1.39268,-0.79582 0.65112,-0.43408 1.03095,-0.74156 h 0.18086 z m 21.10726,1.26608 h -3.40031 v -2.24276 q -1.71824,1.35651 -3.29179,2.07998 -1.57355,0.72347 -3.47266,0.72347 -3.18327,0 -4.95578,-1.93529 -1.7725,-1.95337 -1.7725,-5.71542 v -13.1129 h 3.40031 v 11.50318 q 0,1.53738 0.1447,2.64067 0.14469,1.08521 0.61495,1.86294 0.48834,0.79581 1.26607,1.15755 0.77773,0.36174 2.26085,0.36174 1.32033,0 2.87579,-0.6873 1.57355,-0.6873 2.93006,-1.75442 v -15.08436 h 3.40031 z m 36.17354,0 h -3.40032 v -11.50319 q 0,-1.30224 -0.1266,-2.51406 -0.10852,-1.21181 -0.48835,-1.93528 -0.41599,-0.77773 -1.19372,-1.17564 -0.77773,-0.39791 -2.24276,-0.39791 -1.42886,0 -2.85771,0.72347 -1.42886,0.70538 -2.85771,1.80868 0.0543,0.41599 0.0904,0.97668 0.0362,0.54261 0.0362,1.08521 v 12.93204 h -3.40031 v -11.50319 q 0,-1.33842 -0.12661,-2.53214 -0.10852,-1.21182 -0.48834,-1.93529 -0.416,-0.77773 -1.19373,-1.15755 -0.77773,-0.39791 -2.24276,-0.39791 -1.39268,0 -2.80345,0.6873 -1.39268,0.68729 -2.78536,1.75441 v 15.08437 h -3.40031 v -20.20292 h 3.40031 v 2.24276 q 1.59163,-1.32034 3.16518,-2.06189 1.59164,-0.74156 3.38223,-0.74156 2.06189,0 3.49074,0.86816 1.44695,0.86817 2.15233,2.40554 2.06189,-1.73633 3.76205,-2.49597 1.70015,-0.77773 3.63544,-0.77773 3.32796,0 4.90151,2.02572 1.59164,2.00763 1.59164,5.62498 z"
       id="text52"
       style="font-size:37.0417px;line-height:0;font-family:Sans;-inkscape-font-specification:'Sans, Normal';fill:#00000f;stroke-width:0.264583"
       aria-label="Locum" />
  </g>
</svg>
